<?xml version="1.0" standalone="no"?>
<!DOCTYPE svg PUBLIC "-//W3C//DTD SVG 20010904//EN"
 "http://www.w3.org/TR/2001/REC-SVG-20010904/DTD/svg10.dtd">
<svg version="1.0" xmlns="http://www.w3.org/2000/svg"
 width="433.000000pt" height="373.000000pt" viewBox="0 0 433.000000 373.000000"
 preserveAspectRatio="xMidYMid meet">
<metadata>
Created by potrace 1.16, written by Peter Selinger 2001-2019
</metadata>
<g transform="translate(0.000000,373.000000) scale(0.100000,-0.100000)"
fill="#000000" stroke="none">
<path d="M1925 3524 c-13 -25 -23 -33 -34 -28 -9 4 -52 9 -97 12 -130 6 -244
-31 -244 -79 0 -13 -6 -18 -22 -16 -35 3 -50 -36 -45 -119 3 -49 0 -77 -10
-89 -33 -47 4 -112 58 -101 l30 6 -7 -88 -7 -88 40 -32 c22 -17 52 -36 67 -41
37 -15 34 -35 -5 -27 -17 3 -40 1 -52 -6 -12 -6 -41 -13 -64 -15 -24 -2 -62
-10 -86 -18 -23 -8 -52 -15 -64 -15 -27 0 -49 -32 -57 -85 -23 -138 -95 -316
-178 -438 -36 -53 -42 -57 -73 -54 -18 2 -40 9 -48 15 -12 10 -16 9 -21 -4 -5
-13 -9 -14 -21 -4 -33 28 -223 -15 -211 -47 3 -8 2 -12 -3 -9 -25 16 -86 -98
-115 -215 -16 -64 -20 -186 -7 -243 8 -36 39 -48 179 -66 l103 -12 -71 -24
c-39 -14 -82 -31 -95 -40 -31 -20 -49 -76 -41 -130 6 -49 47 -137 79 -172 11
-12 16 -22 10 -22 -5 0 -42 -28 -81 -62 -116 -101 -232 -266 -232 -329 0 -16
3 -18 19 -9 27 14 28 13 46 -14 16 -25 11 -56 -9 -56 -7 0 -23 11 -36 25 -12
13 -27 22 -31 19 -12 -7 28 -60 55 -72 45 -20 173 -52 241 -59 l69 -8 17 -105
c31 -191 33 -220 15 -220 -51 0 -239 -85 -233 -105 12 -35 201 -26 278 14 20
11 39 18 41 16 8 -9 164 -35 205 -35 28 0 42 -4 40 -12 -4 -20 45 -38 105 -38
58 0 196 39 279 80 24 11 54 20 68 20 36 0 124 35 135 53 9 13 11 12 21 -6 12
-24 54 -38 72 -24 9 7 25 -2 54 -28 61 -55 158 -97 243 -105 39 -4 81 -3 94 1
22 8 22 10 7 46 -9 21 -27 58 -41 81 l-26 44 23 24 c26 27 52 30 92 9 58 -30
86 15 36 58 -18 15 -27 27 -20 27 25 0 -8 182 -54 301 -8 20 23 30 70 22 38
-6 33 11 56 -191 6 -56 15 -104 19 -107 14 -9 30 55 41 169 6 61 13 116 14
121 3 10 115 20 115 11 0 -2 -9 -26 -21 -53 -52 -121 -71 -283 -34 -283 26 0
16 -16 -20 -33 -40 -19 -43 -27 -15 -52 18 -16 23 -17 48 -4 15 7 30 15 35 17
7 4 57 -99 57 -118 0 -15 -50 -1 -90 25 -19 13 -54 41 -77 64 l-42 41 -47 -30
c-26 -16 -69 -37 -96 -46 -26 -8 -45 -20 -42 -26 8 -13 47 -3 121 34 l63 31
44 -41 c72 -66 164 -104 187 -76 21 26 -48 183 -101 228 l-31 26 15 74 c8 41
28 107 43 148 l28 73 80 12 c131 19 121 24 140 -63 9 -41 28 -107 41 -146 13
-40 24 -78 24 -85 0 -19 -79 -123 -94 -123 -17 -1 -83 -83 -110 -137 -13 -26
-27 -67 -30 -90 -6 -40 -5 -43 17 -43 22 0 87 23 191 69 37 16 46 25 38 33 -9
9 -18 9 -37 0 -20 -9 -25 -9 -25 3 0 8 -9 19 -21 25 -11 7 -18 14 -15 17 10
10 -16 33 -37 33 -19 0 -20 1 -2 20 l18 20 14 -20 c8 -11 21 -20 29 -20 21 0
17 28 -6 40 -11 6 -18 15 -15 21 10 15 45 10 45 -6 0 -8 8 -15 18 -15 31 0 33
13 6 31 -25 16 -25 18 -8 27 11 6 56 8 107 5 l87 -6 0 -31 c-1 -28 -9 -36 -80
-80 -44 -27 -77 -53 -74 -57 9 -15 24 -10 92 34 89 56 120 54 167 -11 28 -39
45 -52 105 -75 40 -15 101 -31 136 -34 70 -6 69 -7 64 57 -3 35 -53 120 -105
178 -25 28 -45 59 -45 70 0 10 -9 31 -20 44 -19 25 -19 26 0 94 26 88 50 319
51 482 1 70 5 132 10 138 5 6 5 25 0 45 -5 19 -15 78 -22 131 l-12 97 52 56
c63 66 116 176 138 283 15 70 14 78 -2 108 -9 17 -32 40 -50 50 -36 19 -45 38
-45 96 0 45 -30 72 -107 94 l-54 16 45 46 c25 25 50 57 56 72 6 15 22 32 36
39 13 6 32 26 41 45 14 30 14 42 5 74 -10 33 -9 45 3 68 33 64 17 113 -52 159
-32 21 -60 49 -66 64 -10 27 -12 27 -46 16 -27 -9 -58 -9 -118 -2 -166 21
-285 -39 -300 -151 -5 -34 -8 -40 -19 -31 -16 13 -19 69 -5 69 15 0 51 66 51
94 0 23 -3 26 -25 20 -14 -3 -40 -3 -58 0 l-32 6 1 77 c1 43 7 94 13 113 6 19
14 79 17 132 l6 98 -26 10 c-14 5 -26 17 -26 27 0 36 -40 84 -88 105 -120 54
-351 -14 -401 -117 -8 -17 -14 -55 -13 -86 1 -45 -2 -60 -18 -74 -24 -22 -25
-34 -3 -64 11 -17 17 -47 18 -95 1 -39 7 -81 14 -94 27 -50 -14 -69 -63 -31
-34 27 -50 14 -49 -37 1 -44 -4 -40 -20 17 -11 38 -18 45 -52 56 -22 6 -70 12
-106 12 -52 1 -70 5 -84 21 -10 11 -22 17 -27 14 -5 -3 -1 -16 10 -28 24 -26
37 -50 55 -105 l15 -42 -57 3 -56 3 4 45 c9 94 8 105 -16 108 -32 5 -29 17 7
32 72 30 80 43 80 136 0 70 3 87 19 103 26 26 45 96 35 130 -4 14 -6 69 -5
122 3 101 -11 168 -38 193 -15 14 -19 12 -36 -20z m46 -41 c7 -23 10 -70 7
-130 -4 -76 -9 -96 -24 -108 -18 -14 -18 -15 4 -21 14 -4 22 -14 22 -29 0 -34
-10 -55 -26 -55 -23 0 -34 -45 -34 -135 0 -81 -1 -84 -29 -104 -75 -54 -184
-50 -275 10 l-46 31 6 83 c8 107 5 117 -36 102 -36 -14 -50 -1 -50 44 0 37 22
53 64 45 39 -8 46 2 46 68 0 90 67 117 181 71 57 -23 73 -26 94 -17 36 17 55
-14 44 -71 -8 -48 -5 -57 10 -28 11 19 12 151 2 151 -3 0 -24 -9 -47 -21 l-43
-20 -48 22 c-77 35 -126 37 -172 5 -36 -25 -40 -33 -46 -85 -6 -57 -7 -57 -36
-53 -35 5 -44 31 -36 98 6 57 20 73 47 56 28 -17 30 -16 24 17 -5 23 -1 32 17
44 54 34 187 45 314 25 13 -2 23 5 30 20 14 31 22 28 36 -15z m725 -174 c38
-12 68 -43 83 -88 6 -18 18 -39 27 -45 23 -18 25 -129 3 -166 -10 -16 -14 -31
-8 -37 5 -5 4 -25 -2 -48 -15 -53 -6 -151 17 -176 10 -11 30 -19 51 -19 39 0
44 -21 13 -58 l-20 -24 -31 26 c-38 33 -72 41 -107 28 -61 -23 -79 -23 -86 1
-13 50 -7 74 29 101 63 48 110 154 116 264 3 41 1 47 -16 48 -11 1 -25 2 -32
3 -22 2 -81 60 -108 106 -14 25 -27 45 -29 45 -2 0 -13 -15 -24 -34 -27 -46
-106 -103 -161 -118 -31 -8 -40 -13 -28 -17 15 -5 18 -22 20 -92 3 -72 7 -93
30 -132 15 -26 38 -54 51 -64 20 -15 22 -22 14 -63 -17 -96 -11 -90 -83 -90
-36 0 -82 -7 -105 -16 -39 -16 -40 -16 -60 7 -19 24 -36 76 -27 86 3 2 14 0
25 -6 27 -15 64 -14 85 2 15 11 15 17 2 67 -8 30 -15 74 -15 98 0 36 3 42 21
42 16 0 19 4 14 18 -7 19 -23 96 -32 153 -8 59 13 115 55 144 90 61 222 84
318 54z m-88 -93 c6 -13 25 -40 42 -60 18 -20 27 -36 21 -36 -6 0 -11 -5 -11
-11 0 -7 9 -9 21 -6 12 3 32 2 45 -3 20 -8 24 -16 24 -54 0 -73 -36 -154 -94
-211 -49 -49 -50 -51 -49 -104 1 -37 9 -64 23 -82 28 -39 25 -56 -15 -96 -32
-32 -39 -35 -73 -28 -20 4 -44 13 -53 21 -26 24 -30 66 -9 89 23 25 35 57 44
118 7 46 5 50 -29 89 -51 56 -68 101 -68 183 0 56 3 71 18 80 69 40 112 76
125 103 18 38 23 39 38 8z m-995 -431 c-6 -40 20 -225 47 -335 20 -79 73 -236
82 -246 8 -8 42 87 64 179 l18 77 59 0 59 0 -7 -27 c-10 -43 -50 -105 -110
-170 -30 -34 -51 -64 -46 -67 12 -8 102 90 146 159 34 52 39 57 66 51 38 -7
47 11 9 19 -46 10 -39 35 8 28 20 -3 38 -6 38 -7 1 -1 -7 -93 -19 -206 -19
-198 -19 -211 -3 -357 9 -83 19 -158 22 -166 8 -22 -24 -29 -127 -29 -114 1
-126 5 -139 50 -23 81 -42 240 -37 322 l4 85 -59 53 c-71 66 -97 108 -139 235
l-33 98 32 25 c18 14 32 30 32 35 0 5 -20 14 -45 20 -25 6 -45 13 -45 14 0 26
79 159 108 183 21 17 21 17 15 -23z m-88 -35 c-22 -34 -65 -131 -65 -145 0 -3
15 -5 33 -5 51 0 61 -13 32 -38 -32 -28 -31 -40 4 -143 41 -123 63 -159 131
-223 l62 -57 -7 -67 c-3 -37 -1 -108 4 -159 10 -79 9 -98 -5 -133 -27 -68 -54
-80 -183 -80 l-111 0 0 29 c0 57 31 297 46 358 14 58 14 74 -5 216 -11 84 -25
166 -31 181 -5 15 -10 56 -10 92 0 35 -4 64 -9 64 -18 0 -22 -94 -6 -153 8
-32 15 -68 15 -80 0 -13 -27 -68 -61 -122 -62 -102 -99 -149 -99 -127 0 8 -8
10 -24 6 -14 -3 -39 1 -60 11 l-35 17 38 56 c81 120 112 198 182 465 6 21 15
40 22 41 7 2 35 11 62 19 28 9 62 16 78 16 l27 1 -25 -40z m598 25 c9 -4 22
-26 28 -48 14 -52 45 -115 70 -142 18 -21 18 -22 -26 -100 -28 -49 -43 -86
-39 -97 10 -33 -12 -19 -47 30 -37 51 -41 82 -26 196 6 49 5 57 -7 53 -8 -3
-27 -2 -42 2 -22 6 -31 17 -45 58 -9 28 -14 55 -11 58 8 8 118 0 145 -10z
m1152 -49 c17 -1 39 3 50 7 15 5 23 1 30 -16 6 -12 31 -35 57 -52 70 -44 82
-89 42 -152 -16 -25 -54 -31 -54 -10 0 8 -11 24 -24 36 -13 12 -26 36 -30 52
-6 31 -26 38 -45 15 -7 -8 -20 -12 -31 -9 -18 5 -18 7 -5 34 16 31 0 56 -17
25 -14 -26 -83 -56 -161 -71 -73 -14 -107 -37 -107 -73 0 -11 8 -7 28 14 21
24 41 34 92 43 35 7 78 19 95 27 l30 15 -30 -25 c-16 -14 -40 -26 -52 -26 -13
0 -23 -4 -23 -10 0 -5 30 -9 68 -8 55 0 73 5 100 25 22 16 32 20 32 10 0 -7
14 -29 30 -47 17 -19 28 -40 26 -46 -6 -15 18 -26 39 -18 23 9 45 -15 45 -50
0 -38 -27 -79 -46 -72 -23 9 -45 -5 -39 -23 8 -26 -44 -91 -108 -135 -32 -22
-57 -43 -57 -48 0 -4 -8 -16 -19 -27 -20 -20 -71 -18 -71 2 0 20 -51 77 -96
108 -51 35 -83 91 -64 114 13 16 -1 28 -22 20 -25 -10 -41 22 -36 70 6 51 25
82 42 65 13 -13 26 -13 26 0 0 6 -10 14 -23 19 -21 8 -23 13 -17 68 3 33 13
71 23 86 34 53 121 79 227 69 36 -4 79 -6 95 -6z m-459 -71 c34 -33 36 -37 30
-77 -8 -50 -23 -70 -36 -48 -7 12 -13 11 -34 -9 -16 -15 -31 -21 -42 -17 -14
5 -11 13 19 50 37 44 58 96 39 96 -5 0 -15 -14 -21 -32 -17 -48 -58 -87 -84
-80 -20 5 -19 2 8 -26 29 -31 68 -42 80 -22 3 6 21 10 40 10 25 0 35 5 40 20
8 25 21 26 34 2 7 -13 6 -31 -4 -58 l-13 -39 -124 5 c-67 2 -148 5 -178 5
l-55 0 -6 -90 c-3 -49 -4 -92 -2 -95 2 -2 47 -5 99 -6 53 -2 98 -5 101 -8 3
-3 -2 -24 -11 -46 -9 -23 -17 -64 -18 -91 0 -44 -4 -52 -25 -60 -60 -23 -262
2 -254 32 16 61 12 122 -12 177 -14 31 -28 78 -32 105 -7 55 -18 59 -41 15 -9
-18 -18 -34 -19 -36 -4 -4 -75 33 -100 53 -17 14 -18 18 -5 38 8 12 32 55 55
96 48 89 73 109 143 118 l52 6 0 -31 c0 -51 17 -82 55 -97 54 -23 99 -19 135
12 18 15 41 28 52 28 11 1 24 8 29 16 16 24 29 86 23 103 -12 31 42 18 82 -19z
m-748 -10 c1 -1 -2 -14 -7 -29 -10 -25 -14 -26 -78 -26 -60 0 -243 17 -249 23
-1 1 0 13 3 27 l4 25 162 -9 c89 -5 163 -10 165 -11z m-146 -61 l137 -7 -6
-51 c-3 -28 -8 -54 -12 -58 -3 -3 -28 -2 -56 2 -27 5 -99 9 -158 9 l-108 1 6
48 c10 70 12 75 38 68 12 -3 84 -9 159 -12z m915 -178 c1 -1 -1 -36 -4 -77
l-6 -76 -151 5 c-83 2 -151 5 -152 6 0 0 1 23 4 49 l4 49 79 -7 c100 -9 198
-10 206 -1 3 3 -18 6 -49 6 -30 0 -96 3 -146 6 -89 7 -92 8 -92 32 l0 24 153
-7 c83 -4 153 -8 154 -9z m-624 -167 c-42 -74 -115 -158 -155 -180 -16 -9 -18
-4 -18 40 0 45 4 55 45 101 25 28 59 75 76 105 l30 54 34 -20 33 -20 -45 -80z
m-766 -19 c7 -33 4 -63 -8 -115 -16 -62 -49 -336 -49 -399 0 -18 6 -26 22 -28
32 -4 37 -38 48 -318 10 -251 20 -358 51 -538 22 -131 24 -193 7 -210 -9 -9
-9 -12 0 -12 17 0 15 -35 -4 -71 -14 -28 -14 -32 1 -49 23 -25 13 -37 -35 -45
-47 -8 -148 -72 -205 -131 l-40 -41 -30 19 c-16 10 -51 28 -76 40 -44 20 -47
25 -52 66 -7 65 17 262 34 273 8 5 24 9 35 9 32 0 190 47 235 70 34 18 39 25
39 54 0 42 -30 130 -72 209 -32 60 -156 197 -208 229 l-24 15 49 56 c31 35 58
57 71 57 24 0 30 20 41 123 5 56 5 57 -19 57 -14 0 -33 9 -44 21 -27 30 -70
50 -123 58 l-46 7 89 17 c49 10 118 30 152 45 62 26 64 28 64 64 0 65 -51 273
-81 329 -9 18 -6 26 19 53 16 17 47 58 67 91 21 33 45 71 53 85 l16 25 7 -35
c4 -19 11 -55 16 -80z m928 -78 c0 -58 -3 -75 -16 -83 -9 -5 -20 -21 -23 -35
-4 -15 -18 -41 -31 -58 -44 -58 -191 -322 -225 -404 -18 -45 -34 -81 -36 -79
-1 1 -5 44 -9 95 -6 89 -6 94 14 99 26 7 26 10 4 191 l-17 143 34 27 c80 62
118 105 160 181 28 50 51 81 61 81 9 0 20 8 24 17 4 13 13 2 33 -42 20 -47 26
-76 27 -133z m555 157 c0 -32 21 -57 93 -112 48 -36 74 -74 60 -88 -11 -11
-123 18 -123 31 0 4 -23 42 -51 84 -49 74 -50 78 -33 97 27 30 54 25 54 -12z
m-28 -124 c41 -64 53 -75 83 -81 41 -7 43 -14 13 -49 -20 -22 -33 -27 -86 -30
-89 -4 -170 -46 -196 -100 -50 -102 -20 -268 75 -416 l41 -63 -28 -90 c-15
-50 -29 -96 -31 -101 -2 -6 10 -16 27 -22 l30 -11 1 -124 c0 -67 4 -150 8
-183 5 -33 7 -62 5 -64 -2 -2 -59 -10 -126 -18 -88 -10 -207 -13 -423 -11
-265 4 -305 6 -342 22 -42 19 -43 19 -37 60 24 161 156 589 224 731 54 110
171 310 198 337 15 15 22 16 77 3 131 -32 316 -8 323 41 2 12 -4 28 -12 37
-22 22 -20 102 3 154 18 40 22 42 68 46 26 2 50 4 53 5 3 1 26 -32 52 -73z
m-1917 15 c4 -6 1 -35 -5 -66 -15 -72 -7 -81 57 -67 37 9 51 8 66 -2 11 -7 26
-11 33 -8 8 3 32 -2 55 -11 40 -16 65 -14 54 5 -4 5 -2 9 3 9 13 0 82 -255 82
-303 0 -11 -127 -60 -187 -72 -109 -23 -115 -19 -58 44 19 21 44 58 55 83 22
50 36 144 27 180 -6 23 -10 24 -71 20 -104 -7 -184 33 -200 101 -10 40 -21 33
-35 -24 -9 -34 -26 -64 -52 -91 -23 -24 -40 -52 -41 -67 0 -14 -4 -6 -7 19 -6
42 -8 45 -33 43 -16 -1 -28 0 -28 2 0 2 9 27 20 56 41 103 78 132 194 149 28
4 54 8 58 9 4 0 10 -4 13 -9z m2347 -50 c80 -22 98 -36 98 -78 0 -20 5 -54 11
-75 12 -44 10 -50 -11 -37 -9 6 -17 32 -20 67 -3 32 -9 57 -15 56 -5 -2 -12
-31 -15 -65 -4 -57 -6 -61 -17 -41 -7 12 -13 44 -13 72 0 62 -12 66 -26 8 -8
-38 -6 -51 13 -93 33 -71 31 -74 -32 -74 -42 0 -55 3 -55 15 0 8 9 15 20 15
23 0 33 39 28 120 -3 51 -5 55 -26 52 -13 -1 -30 5 -39 14 -14 14 -13 17 8 40
13 13 29 22 35 20 7 -3 32 -10 56 -16z m-2352 -145 c31 -10 72 -15 106 -13
l56 3 -4 -65 c-6 -73 -22 -112 -80 -185 -38 -47 -39 -53 -36 -110 l3 -60 -38
0 -38 -1 6 37 c8 49 -4 70 -71 120 -99 73 -122 177 -56 247 17 18 37 49 44 68
l12 34 23 -29 c14 -18 43 -36 73 -46z m2119 34 l59 -32 54 32 c30 17 58 28 61
25 5 -5 -2 -114 -8 -122 -1 -1 -27 9 -58 23 l-55 26 -54 -21 c-66 -25 -65 -25
-72 6 -6 24 2 94 11 94 2 0 30 -14 62 -31z m-94 -81 c3 -22 12 -38 19 -38 8 0
16 -17 20 -42 14 -92 71 -241 90 -235 6 2 20 18 31 35 17 26 26 31 60 31 l40
0 -31 -28 c-18 -16 -40 -33 -50 -39 -27 -15 -10 -26 17 -12 13 8 41 10 71 7
41 -5 48 -3 49 11 1 9 2 26 3 36 1 13 10 20 29 23 32 4 32 4 7 -67 -12 -34
-19 -82 -19 -125 -1 -70 21 -245 34 -277 5 -13 -1 -18 -30 -24 -52 -9 -138 1
-168 21 -33 21 -54 67 -62 135 -7 51 -6 54 8 35 12 -15 18 -17 28 -8 18 18 3
46 -21 38 -19 -6 -20 -2 -20 56 0 61 0 62 20 44 16 -15 22 -15 35 -5 8 7 15
18 15 25 0 18 -30 27 -46 14 -11 -9 -14 -6 -15 17 0 22 -10 36 -42 59 -43 31
-137 157 -137 183 0 8 11 23 25 34 33 26 32 38 -4 38 -17 0 -32 3 -35 8 -2 4
12 29 32 56 20 27 37 45 38 40 1 -5 5 -26 9 -46z m-55 37 c0 -3 -13 -24 -30
-47 -37 -50 -37 -56 -5 -64 24 -6 25 -8 10 -23 -8 -10 -15 -25 -15 -35 0 -30
102 -168 148 -200 30 -21 41 -35 36 -46 -4 -8 -8 -64 -9 -123 -2 -63 -7 -113
-14 -120 -6 -6 -11 -16 -11 -22 0 -6 -15 -28 -34 -48 -29 -31 -40 -37 -75 -37
-53 0 -131 19 -137 34 -2 6 14 69 36 139 45 145 47 159 24 213 -21 49 -44 197
-32 205 12 8 -23 69 -39 69 -9 0 -10 -7 -3 -24 6 -17 5 -26 -3 -29 -9 -3 -9
-9 -1 -24 6 -10 15 -43 18 -73 4 -30 17 -83 28 -118 19 -60 19 -132 0 -132
-15 0 -72 108 -97 184 -29 85 -33 160 -14 224 13 44 36 65 97 87 36 13 122 20
122 10z m567 -57 c29 -27 29 -61 2 -158 -24 -89 -69 -176 -112 -220 l-32 -33
-3 27 c-5 37 23 128 48 156 11 13 20 35 20 50 0 15 3 47 6 72 6 44 6 45 -24
51 -19 4 -33 14 -37 28 -10 31 9 45 41 30 23 -10 30 -9 43 3 20 20 20 20 48
-6z m-2793 -66 c10 -2 22 2 26 8 5 8 14 -9 24 -42 16 -55 58 -105 126 -149 14
-9 22 -20 19 -23 -10 -11 -232 23 -241 36 -9 15 -11 179 -2 203 6 14 8 13 18
-7 6 -12 20 -24 30 -26z m2701 -4 c4 -4 5 -19 1 -33 -6 -24 -10 -25 -74 -25
-37 0 -104 3 -149 7 -78 6 -83 7 -83 29 0 13 7 24 17 26 33 6 281 3 288 -4z
m-87 -69 l83 -1 -3 -42 c-2 -22 -7 -41 -13 -41 -5 0 -74 4 -152 9 -141 8 -143
8 -143 31 0 53 8 58 79 51 36 -3 103 -7 149 -7z m-1532 -115 c16 -4 65 -8 111
-8 66 -1 83 -4 83 -16 0 -8 5 -70 10 -138 8 -119 8 -125 -20 -215 -78 -251
-119 -444 -97 -463 13 -12 110 -44 133 -44 10 0 13 -22 13 -100 l0 -100 -77
-2 -77 -2 80 -5 80 -6 3 -37 3 -36 -75 -7 c-99 -9 -164 1 -187 28 -21 25 -25
16 -7 -16 10 -20 10 -21 -5 -8 -15 11 -17 11 -17 -2 0 -9 5 -19 10 -22 6 -3
10 -34 10 -69 l0 -63 -37 -11 c-21 -6 -51 -13 -68 -15 -16 -3 -69 -21 -116
-42 l-86 -37 -27 25 c-23 21 -24 26 -11 37 19 16 19 29 -1 51 -17 19 -12 39
11 39 7 0 25 -14 40 -31 28 -34 44 -34 25 0 -12 23 -1 28 18 9 9 -9 12 -8 12
6 0 12 5 16 15 12 8 -3 15 -1 15 5 0 5 -6 12 -14 15 -11 4 -11 11 -3 33 8 22
15 27 36 24 14 -3 36 -10 49 -16 17 -8 31 -8 56 1 18 7 43 12 55 12 20 0 21 2
11 15 -9 11 -33 15 -85 15 -40 0 -87 3 -104 6 -27 6 -30 9 -24 33 4 14 7 34 7
43 0 15 11 17 88 13 48 -2 88 0 88 5 0 5 -39 11 -87 12 l-88 3 -7 105 c-3 58
-13 137 -22 175 -10 41 -20 161 -26 290 -11 226 -25 419 -36 468 l-6 27 71 0
c103 0 157 16 189 56 l26 33 17 -39 c12 -28 26 -41 45 -46z m-916 -129 c0 -18
9 -31 30 -43 36 -21 42 -66 10 -75 -23 -6 -28 -45 -8 -65 16 -16 48 -15 68 3
13 12 28 13 76 6 32 -5 49 -9 37 -10 -12 0 -29 -8 -37 -17 -21 -20 -21 -70 0
-82 21 -12 10 -32 -17 -32 -12 0 -19 7 -19 19 0 22 -16 36 -51 44 -29 7 -69
-16 -69 -39 0 -8 -7 -14 -15 -14 -8 0 -15 4 -15 9 0 5 7 14 15 21 26 22 19 59
-15 74 -30 12 -30 13 -11 30 45 41 34 91 -22 102 -26 4 -27 3 -27 -41 0 -46 0
-46 -32 -43 -31 3 -33 5 -36 48 -3 42 -1 46 27 57 17 6 35 22 40 36 17 43 71
52 71 12z m368 -20 c7 -7 -13 -150 -21 -148 -4 0 -66 4 -137 8 l-130 8 0 49 0
50 138 -5 c92 -4 116 -3 72 3 -36 4 -98 8 -137 9 -68 1 -73 3 -73 22 0 22 1
22 142 15 78 -4 144 -9 146 -11z m1876 -293 c36 -41 74 -54 154 -55 l75 0 -6
-176 c-8 -208 -20 -318 -48 -423 l-21 -76 23 -23 c22 -22 22 -23 3 -30 -10 -4
-63 -8 -116 -8 -80 -1 -98 -4 -98 -16 0 -11 -12 -15 -52 -15 -51 0 -128 16
-128 26 0 3 10 18 22 34 l21 30 -31 102 c-18 57 -39 141 -47 188 -13 72 -34
312 -35 387 0 22 4 23 75 21 48 -1 80 4 90 12 12 10 19 10 27 2 14 -14 68 -16
68 -3 0 6 -16 11 -35 13 l-35 3 27 34 c24 30 27 31 36 15 5 -11 19 -30 31 -42z
m-2258 -17 c13 -3 35 -7 49 -10 13 -3 35 -16 49 -30 34 -34 52 -31 90 10 37
40 51 44 43 14 -8 -30 1 -48 32 -63 20 -11 32 -11 46 -4 15 9 23 6 44 -20 77
-93 85 -113 49 -136 -14 -8 -22 -7 -35 7 -15 14 -16 22 -6 47 12 32 3 40 -16
16 -21 -25 -9 -69 22 -84 24 -12 32 -11 53 3 32 21 41 13 25 -21 -15 -35 -6
-61 28 -79 19 -9 30 -25 35 -46 8 -43 3 -45 -27 -15 -15 14 -33 26 -41 26 -21
0 -46 -39 -46 -71 0 -34 -18 -41 -42 -17 -33 33 -96 16 -102 -27 -3 -18 -12
-20 -99 -23 -94 -3 -97 -2 -97 19 0 56 -73 79 -117 37 -13 -12 -23 -28 -23
-35 0 -9 -8 -13 -22 -11 -20 3 -23 8 -20 39 2 21 -2 40 -10 46 -42 34 -116 7
-109 -39 0 -5 -10 -8 -24 -8 -28 0 -29 3 -14 32 14 25 -5 75 -32 83 -22 7 -23
15 -7 50 6 14 17 24 25 21 7 -3 27 7 44 21 26 22 30 32 26 57 -6 39 30 87 60
80 25 -7 52 20 60 58 4 19 18 38 39 51 19 12 32 27 30 34 -3 6 -2 14 2 18 4 4
8 0 10 -9 2 -9 14 -18 28 -21z m1418 -482 c9 -32 24 -84 33 -116 9 -31 17 -76
17 -98 1 -38 -3 -45 -66 -101 l-66 -59 -45 33 c-24 18 -59 41 -77 51 -26 14
-30 20 -20 31 8 10 9 40 4 98 -3 46 -6 85 -6 88 0 3 0 31 1 62 l1 57 68 4 c37
2 84 4 104 5 36 2 37 2 52 -55z m-1341 -250 c3 -5 7 -48 11 -98 l7 -90 -53
-24 c-38 -17 -77 -25 -138 -28 l-85 -4 34 22 c20 13 51 23 73 24 22 1 43 7 47
14 5 7 24 16 42 20 l34 7 -2 60 c-2 32 -5 69 -8 82 -4 17 -1 22 14 22 11 0 22
-3 24 -7z m1093 -38 l23 -25 -29 -15 c-17 -9 -30 -20 -30 -25 0 -13 6 -13 41
6 17 8 38 13 47 11 14 -4 13 -5 -3 -6 -28 -2 -58 -27 -50 -41 5 -8 13 -6 26 6
10 9 25 14 32 11 8 -3 19 -1 25 5 6 6 16 7 22 3 8 -5 2 -14 -17 -26 -34 -23
-63 -40 -83 -49 -8 -4 -17 -17 -20 -29 -5 -21 -8 -20 -58 23 -53 45 -79 55
-98 36 -21 -21 -33 6 -27 67 l6 62 81 4 c44 1 83 4 85 5 2 1 14 -9 27 -23z
m1274 -35 c12 -8 11 -10 -6 -10 -27 0 -78 -39 -52 -40 9 0 20 5 23 10 3 6 21
10 38 10 l32 -1 -34 -15 c-42 -18 -34 -30 10 -15 20 7 37 7 48 1 14 -8 13 -9
-6 -10 -12 0 -25 -5 -29 -11 -5 -9 1 -10 21 -5 19 5 33 2 46 -10 26 -23 24
-27 -13 -42 -53 -22 -78 -35 -78 -41 0 -3 -4 -12 -9 -19 -12 -19 -79 12 -111
52 -13 17 -17 25 -7 17 14 -11 17 -11 17 0 0 28 -17 42 -44 35 -21 -5 -26 -2
-30 16 -17 75 -15 77 77 81 45 1 84 4 87 5 3 1 12 -3 20 -8z m-1117 -87 c8
-10 27 -40 41 -68 18 -37 22 -52 13 -57 -19 -10 -139 8 -175 26 -36 18 -40 36
-15 61 16 16 17 16 30 -1 12 -16 13 -16 13 -1 0 23 35 57 58 57 11 0 26 -8 35
-17z"/>
<path d="M1726 1438 c-11 -93 -6 -342 9 -486 16 -149 28 -198 46 -186 11 7 7
321 -6 484 -2 30 -7 89 -9 130 -8 120 -28 150 -40 58z"/>
<path d="M3087 1106 c-4 -9 -12 -77 -18 -151 -9 -113 -8 -154 5 -261 17 -124
35 -175 51 -136 13 33 17 347 6 441 -10 94 -31 142 -44 107z"/>
<path d="M3843 1120 c-31 -13 -43 -41 -43 -104 0 -53 -1 -56 -26 -56 -14 0
-44 -5 -68 -11 l-43 -11 -7 -154 c-4 -85 -9 -161 -12 -168 -3 -7 -16 -19 -30
-27 -14 -7 -34 -29 -44 -49 -33 -65 -53 -271 -28 -286 6 -4 25 -10 42 -14 29
-6 31 -8 28 -48 l-2 -42 47 -2 c27 -1 57 -1 68 0 32 2 258 1 285 -1 21 -2 26
3 28 27 3 23 7 27 27 24 13 -3 61 5 107 16 l83 21 8 65 c9 74 2 203 -14 248
-13 38 -64 60 -144 64 l-60 3 1 95 c0 52 3 130 7 173 l7 77 -66 0 c-56 0 -65
2 -60 16 3 9 9 39 12 68 6 48 4 55 -17 70 -26 18 -52 20 -86 6z m-87 -354 c-8
-221 -36 -589 -45 -599 -4 -4 -22 -4 -39 -1 l-32 7 0 81 c0 44 4 131 9 191 5
61 15 194 22 298 l13 187 30 9 c17 4 35 6 40 3 4 -2 5 -82 2 -176z m272 169
c2 -2 -2 -103 -8 -223 -7 -121 -11 -294 -8 -385 l4 -165 -75 5 c-42 3 -77 7
-78 8 -2 1 22 243 27 273 0 1 5 2 11 2 5 0 7 -4 4 -10 -10 -17 11 -11 38 10
l25 20 -16 59 c-12 44 -22 62 -40 70 -22 11 -23 14 -17 89 10 141 13 235 5
223 -4 -7 -8 -48 -8 -91 -1 -43 -6 -120 -12 -172 -5 -51 -10 -131 -10 -178 0
-77 -23 -286 -31 -295 -2 -2 -26 -5 -54 -6 -50 -3 -50 -3 -48 26 2 17 7 82 13
145 10 119 30 487 30 567 l0 46 123 -8 c67 -4 124 -8 125 -10z m143 -345 c20
-6 42 -17 49 -25 18 -22 31 -151 24 -241 l-6 -80 -78 -17 c-88 -18 -116 -14
-124 16 -8 31 -7 342 1 350 10 10 93 8 134 -3z m-535 -50 c0 -27 -5 -50 -10
-50 -5 0 -3 -6 3 -13 6 -8 8 -17 4 -21 -3 -3 -8 -46 -10 -94 -2 -48 -5 -92 -7
-98 -2 -6 -18 -9 -36 -6 l-33 5 7 101 c8 123 19 165 51 200 13 14 26 26 28 26
3 0 4 -22 3 -50z"/>
<path d="M246 1091 c-17 -19 -19 -51 -5 -101 3 -12 -7 -16 -43 -18 l-48 -3 0
-52 c0 -29 5 -122 11 -207 6 -85 14 -247 17 -360 l7 -205 130 3 c137 3 165 7
165 23 0 6 -54 8 -143 5 l-143 -4 -2 141 c-1 78 -7 210 -12 292 -5 83 -11 194
-13 248 l-4 97 32 0 c18 0 46 3 63 6 l31 6 0 -83 c0 -46 7 -169 16 -274 9
-104 20 -239 24 -298 5 -59 12 -111 16 -115 7 -7 -1 173 -10 233 -8 53 -27
306 -30 415 l-4 105 52 6 c29 3 55 3 59 0 8 -7 22 -178 39 -481 6 -113 15
-223 20 -245 6 -31 7 -21 4 40 -2 44 -9 172 -15 285 -6 113 -16 255 -22 317
l-11 112 -44 -6 -43 -6 0 44 c0 24 -6 55 -13 69 -16 32 -57 38 -81 11z"/>
</g>
</svg>
